<?xml version="1.0" encoding="UTF-8" standalone="no"?>
<svg
   xmlns:dc="http://purl.org/dc/elements/1.1/"
   xmlns:cc="http://creativecommons.org/ns#"
   xmlns:rdf="http://www.w3.org/1999/02/22-rdf-syntax-ns#"
   xmlns:svg="http://www.w3.org/2000/svg"
   xmlns="http://www.w3.org/2000/svg"
   viewBox="0 0 465.70667 465.70667"
   height="465.70667"
   width="465.70667"
   xml:space="preserve"
   id="svg2"
   version="1.1"><metadata
     id="metadata8"><rdf:RDF><cc:Work
         rdf:about=""><dc:format>image/svg+xml</dc:format><dc:type
           rdf:resource="http://purl.org/dc/dcmitype/StillImage" /></cc:Work></rdf:RDF></metadata><defs
     id="defs6" /><g
     transform="matrix(1.3333333,0,0,-1.3333333,0,465.70667)"
     id="g10"><g
       transform="scale(0.1)"
       id="g12"><path
         id="path14"
         style="fill:#ed280e;fill-opacity:0;fill-rule:nonzero;stroke:none"
         d="M 3492.84,0 H 0 V 3492.84 H 3492.84 V 0" /><path
         id="path16"
         style="fill:#ffffff;fill-opacity:1;fill-rule:nonzero;stroke:none"
         d="m 574.645,697.91 c 4.515,0 8.027,-1.469 10.574,-4.441 2.344,-2.707 3.531,-6.039 3.531,-9.93 0,-3.937 -1.187,-7.269 -3.531,-9.98 -2.754,-3.137 -6.364,-4.7 -10.856,-4.7 H 463.441 c -4.675,0 -8.324,1.77 -10.836,5.262 -2.355,2.551 -3.546,5.68 -3.546,9.418 v 392.291 c 0,4.5 1.586,8.01 4.703,10.57 2.754,2.32 6.062,3.5 9.968,3.5 3.926,0 7.247,-1.18 10.004,-3.5 2.926,-2.75 4.379,-6.38 4.379,-10.87 V 697.91 h 96.532" /><path
         id="path18"
         style="fill:#ffffff;fill-opacity:1;fill-rule:nonzero;stroke:none"
         d="M 700.238,934.711 C 692.047,865.621 684.98,813.32 679.133,777.699 h 59.262 c -5.473,46.352 -10.579,87.922 -15.274,124.723 -5.441,42.25 -10.234,76.269 -14.371,102.078 v 0.91 l -4.379,-35.492 z m -40.199,-255 c -0.98,-4.301 -3.207,-7.359 -6.734,-9.082 -3.114,-1.598 -6.571,-1.891 -10.254,-0.91 -3.949,0.972 -6.965,3.019 -9.121,6.16 -2.336,3.32 -2.93,7.16 -1.735,11.441 7.399,32.891 14.368,70.141 20.825,111.809 4.3,28.543 9.496,67.402 15.535,116.5 l 7.047,58.359 c 2.734,21.942 5.281,41.292 7.625,58.102 l 0.601,6.45 0.856,6.48 c 0.621,5.68 1.207,10.27 1.769,13.8 1.965,10.74 5.195,19.05 9.692,24.92 5.675,7.44 11.925,8.4 18.781,2.93 5.679,-4.5 9.57,-10.65 11.719,-18.47 6.066,-23.5 11.351,-51.75 15.843,-84.821 1.36,-10.75 3.133,-25.129 5.289,-43.129 l 2.645,-21.379 2.66,-21.133 c 7.816,-61.636 16.219,-133.347 25.203,-215.109 0.606,-4.277 -0.488,-7.731 -3.226,-10.277 -2.532,-2.321 -5.758,-3.493 -9.668,-3.493 -9.782,0 -15.161,4.7 -16.145,14.082 l -0.277,3.231 -7.043,62.168 h -67.781 c -4.321,-24.43 -9.004,-47.309 -14.106,-68.629" /><path
         id="path20"
         style="fill:#ffffff;fill-opacity:1;fill-rule:nonzero;stroke:none"
         d="m 944.961,1060.59 c -4.516,0 -8.047,1.55 -10.559,4.69 -2.355,2.72 -3.527,6.06 -3.527,9.97 0,3.89 1.172,7.23 3.527,9.96 2.739,3.12 6.246,4.69 10.559,4.69 h 141.429 c 4.49,0 8.02,-1.57 10.57,-4.69 2.34,-2.73 3.51,-6.07 3.51,-9.96 0,-3.91 -1.17,-7.25 -3.51,-9.97 -2.74,-3.14 -6.38,-4.69 -10.85,-4.69 h -55.76 V 682.941 c 0,-4.492 -1.58,-8.043 -4.7,-10.589 -2.74,-2.321 -6.06,-3.493 -9.97,-3.493 -3.9,0 -7.25,1.172 -9.96,3.493 -3.14,2.769 -4.71,6.277 -4.71,10.589 v 377.649 h -56.049" /><path
         id="path22"
         style="fill:#ffffff;fill-opacity:1;fill-rule:nonzero;stroke:none"
         d="m 1142.45,976.648 c -7.07,-35.789 -9.9,-75.886 -8.52,-120.32 1.55,-48.668 7.42,-86.148 17.59,-112.367 6.06,-15.281 13.41,-26.891 22.03,-34.91 11.52,-10.781 24.17,-13.5 37.84,-8.211 11.95,4.488 21.74,13.68 29.34,27.582 5.48,10.137 9.99,23.258 13.5,39.308 5.08,23.692 8.12,53.301 9.1,88.911 0.97,48.308 -1.87,88.3 -8.52,120.007 -1.16,4.922 -2.05,8.903 -2.64,12.032 -1.17,4.679 -2.36,9.121 -3.51,13.2 -3.13,10.74 -6.57,19.97 -10.29,27.58 -10.14,20.94 -23.45,31.59 -39.91,31.98 -16.41,-1.17 -29.72,-11.93 -39.9,-32.28 -3.69,-7.61 -7.04,-16.73 -9.97,-27.28 -2.14,-7.052 -4.18,-15.431 -6.14,-25.232 z m 39.6,-305.168 c -26.22,7.629 -45.76,29.27 -58.7,64.848 -12.71,35.211 -18.97,81.262 -18.76,138.203 0.19,59.059 6.15,105.918 17.88,140.569 15.65,45.95 39.74,71 72.19,75.08 h 0.29 c 2.36,0.23 5,0.23 7.95,0 0.98,0 1.94,-0.08 2.94,-0.28 h 1.15 0.85 c 12.16,-1.95 22.62,-6.84 31.44,-14.65 13.85,-12.54 24.93,-29.93 33.13,-52.24 6.27,-16.64 11.05,-36.971 14.39,-61.022 6.06,-43.429 7.45,-89.117 4.11,-137.039 -3.13,-46.949 -10.57,-82.16 -22.29,-105.648 -8.82,-17.199 -20.54,-30.512 -35.22,-39.891 -16.63,-10.551 -33.73,-13.219 -51.35,-7.93" /><path
         id="path24"
         style="fill:#ffffff;fill-opacity:1;fill-rule:nonzero;stroke:none"
         d="m 1453.17,676.18 c -19.94,-10.739 -38.83,-9.68 -56.62,3.23 -15.07,10.949 -26.42,27.488 -34.05,49.578 -9,25.43 -14.95,55.473 -17.87,90.082 -1.97,21.91 -3.06,52.739 -3.25,92.43 0,18.98 0.59,46.359 1.75,82.168 l 1.18,40.802 c 0.39,15.24 0.6,28.94 0.6,41.06 0,4.49 1.56,8 4.68,10.57 2.76,2.35 6.08,3.53 9.99,3.53 3.91,0 7.23,-1.18 9.97,-3.53 3.11,-2.76 4.68,-6.34 4.68,-10.85 -0.17,-12.54 -0.47,-26.81 -0.87,-42.86 l -1.17,-43.12 c -1.19,-36.782 -1.66,-65.461 -1.47,-85.981 0.39,-39.5 2.16,-72.391 5.29,-98.59 1.96,-16.41 4.01,-29.621 6.17,-39.609 2.93,-14.668 6.93,-27.281 12.03,-37.879 4.28,-8.961 8.69,-15.723 13.19,-20.211 6.27,-6.461 13.39,-9.391 21.41,-8.832 7.25,0.613 13.91,4.594 19.96,12.051 4.5,5.461 8.42,12.5 11.76,21.133 9.58,25.027 15.93,54.769 19.05,89.199 1.17,13.687 1.97,29.019 2.36,46.051 l 0.27,22.91 v 22.59 c 0.2,18.769 -0.38,46.046 -1.74,81.867 l -1.19,40.801 c -0.4,15.23 -0.57,28.83 -0.57,40.76 0,4.49 1.46,8 4.41,10.57 2.73,2.35 6.05,3.53 9.96,3.53 4.11,0 7.54,-1.18 10.27,-3.53 2.94,-2.76 4.42,-6.34 4.42,-10.85 0.17,-17.24 0.66,-39.43 1.45,-66.61 l 0.87,-33.179 0.91,-33.449 c 0.98,-52.813 -0.5,-97.223 -4.42,-133.203 l -0.87,-8.207 -0.89,-8.52 c -0.77,-6.852 -1.68,-13.004 -2.64,-18.461 -2.17,-14.5 -4.89,-27.242 -8.21,-38.172 -8.82,-29.719 -22.39,-49.488 -40.8,-59.269" /><path
         id="path26"
         style="fill:#ffffff;fill-opacity:1;fill-rule:nonzero;stroke:none"
         d="m 1588.73,851.648 c 27,3.301 47.44,17.032 61.34,41.082 12.3,21.129 17.69,46.258 16.12,75.411 -1.55,29.359 -8.21,52.149 -19.95,68.389 -12.1,16.21 -31.27,24.33 -57.51,24.33 z m -29.33,214.482 c -2.56,4.51 -2.75,9.28 -0.6,14.39 2.34,5.69 6.65,8.7 12.93,9.11 45.37,2.93 77.73,-8.72 97.1,-34.92 17.6,-24.29 26.51,-54.89 26.72,-91.87 0.21,-40.09 -8.33,-71.949 -25.53,-95.621 -7.85,-10.578 -17.89,-19.66 -30.23,-27.297 5.27,-21.91 13.99,-47.051 26.12,-75.422 l 7.91,-18.16 8.21,-18.219 c 7.27,-16.031 12.61,-28.281 16.16,-36.66 1.76,-4.141 1.85,-8.141 0.29,-12.051 -1.57,-3.531 -4.03,-6.25 -7.33,-8.219 -3.32,-1.961 -6.64,-2.64 -9.97,-2.07 -3.74,1.008 -6.46,3.527 -8.23,7.668 -3.72,8.77 -9.21,21.18 -16.43,37.262 l -8.51,18.469 -7.93,18.5 c -12.52,28.941 -21.6,54.468 -27.3,76.582 -7.82,-2.551 -15.82,-4.313 -24.05,-5.313 V 682.941 c 0,-4.492 -1.57,-8.043 -4.69,-10.589 -2.73,-2.321 -6.06,-3.493 -9.99,-3.493 -3.9,0 -7.2,1.172 -9.96,3.493 -3.12,2.769 -4.69,6.277 -4.69,10.589 v 383.189" /><path
         id="path28"
         style="fill:#ffffff;fill-opacity:1;fill-rule:nonzero;stroke:none"
         d="m 1886.56,701.711 c 36.19,10.379 62.13,37.25 77.77,80.687 11.94,33.27 16.98,72.782 15.25,118.563 -1.59,40.09 -8.42,73.449 -20.55,100.049 -16.04,35 -40.21,54.89 -72.47,59.58 z m -29.36,364.109 c -3.7,4.16 -4.49,9.24 -2.35,15.28 2.2,6.27 6.58,9.49 13.25,9.7 47.31,1.34 83.52,-19.16 108.53,-61.64 20.17,-34.23 30.81,-76.949 32.01,-128.199 1.57,-58.902 -7.05,-108.09 -25.82,-147.621 -23.71,-49.481 -61.64,-77.559 -113.88,-84.219 -6.24,-0.762 -10.44,1.399 -12.59,6.457 -2.19,4.742 -1.87,9.594 0.85,14.66 v 375.582" /><path
         id="path30"
         style="fill:#ffffff;fill-opacity:1;fill-rule:nonzero;stroke:none"
         d="m 2056.76,1072.91 c -0.81,4.28 0,8.19 2.32,11.74 2.72,3.89 6.64,5.83 11.76,5.83 h 105.92 c 4.48,0 8.01,-1.55 10.57,-4.68 2.32,-2.74 3.48,-6.04 3.48,-9.97 0,-3.93 -1.16,-7.23 -3.48,-10.01 -2.75,-3.11 -6.29,-4.67 -10.57,-4.67 h -90.94 V 890.07 h 90.94 c 4.48,0 8.01,-1.57 10.57,-4.679 2.32,-2.743 3.48,-6.063 3.48,-9.993 0,-3.91 -1.16,-7.207 -3.48,-9.949 -2.75,-3.109 -6.29,-4.699 -10.57,-4.699 h -90.94 V 697.91 h 90.94 c 4.48,0 8.01,-1.469 10.57,-4.441 2.32,-2.707 3.48,-6.039 3.48,-9.93 0,-3.937 -1.16,-7.269 -3.48,-9.98 -2.75,-3.137 -6.29,-4.7 -10.57,-4.7 h -105.64 c -4.5,0 -8.11,1.661 -10.87,5 -2.34,2.719 -3.49,5.942 -3.49,9.68 v 389.371" /><path
         id="path32"
         style="fill:#ffffff;fill-opacity:1;fill-rule:nonzero;stroke:none"
         d="m 2381.25,853.102 c 27.03,3.539 47.47,17.238 61.34,41.109 12.35,21.129 17.69,46.16 16.14,75.098 -1.56,29.339 -8.23,52.151 -19.94,68.381 -12.13,16.24 -31.3,24.35 -57.54,24.35 z m -29.31,214.188 c -2.54,4.54 -2.75,9.33 -0.6,14.43 2.32,5.65 6.67,8.69 12.92,9.08 45.38,2.93 77.77,-8.74 97.14,-34.9 17.59,-24.1 26.46,-54.62 26.69,-91.572 0.19,-40.117 -8.35,-71.898 -25.55,-95.387 -9.15,-12.3 -21.2,-22.48 -36.09,-30.5 -14.28,-7.839 -29.32,-12.621 -45.2,-14.39 v -141.11 c 0,-4.492 -1.55,-8.043 -4.68,-10.589 -2.74,-2.321 -6.07,-3.493 -9.99,-3.493 -3.89,0 -7.21,1.172 -9.95,3.493 -3.12,2.769 -4.69,6.277 -4.69,10.589 v 384.349" /><path
         id="path34"
         style="fill:#ffffff;fill-opacity:1;fill-rule:nonzero;stroke:none"
         d="m 2484.2,687.129 c -1.34,-4.34 -3.74,-7.27 -7.31,-8.848 -3.3,-1.461 -6.81,-1.652 -10.55,-0.492 -3.76,1.152 -6.61,3.223 -8.53,6.231 -2.19,3.531 -2.7,7.371 -1.45,11.5 l 113.74,377.01 c 1.23,4.09 3.76,7.02 7.56,8.72 3.22,1.3 6.72,1.36 10.45,0.23 3.74,-1.14 6.61,-3.23 8.54,-6.26 2.06,-3.28 2.48,-7.09 1.18,-11.37 L 2484.2,687.129" /><path
         id="path36"
         style="fill:#ffffff;fill-opacity:1;fill-rule:nonzero;stroke:none"
         d="m 2645.83,1148.08 c -1.07,0.08 -1.92,1.55 -2.42,4.5 -0.47,2.77 -0.61,6.09 -0.47,10.03 0.13,3.92 0.56,7.21 1.23,9.91 0.81,3.13 1.7,4.66 2.77,4.6 l 95.94,-3.64 c 1.02,-0.04 1.83,-1.63 2.39,-4.81 0.4,-2.74 0.57,-6.06 0.4,-10 -0.15,-3.89 -0.57,-7.21 -1.23,-9.91 -0.73,-2.94 -1.66,-4.36 -2.74,-4.32 l -95.87,3.64" /><path
         id="path38"
         style="fill:#ffffff;fill-opacity:1;fill-rule:nonzero;stroke:none"
         d="m 2652.14,1060.86 c -4.5,0 -8.02,1.49 -10.57,4.42 -2.35,2.72 -3.52,6.06 -3.52,9.97 0,4.09 1.17,7.53 3.52,10.25 2.73,2.95 6.27,4.4 10.57,4.4 h 134.98 c 3.7,0 6.83,-1.18 9.4,-3.5 5.27,-3.53 6.84,-8.53 4.68,-14.97 -53.61,-151.211 -95.93,-274.969 -127.04,-371.2 45.96,3.719 84.48,3.532 115.59,-0.558 4.29,-0.793 7.75,-2.863 10.29,-6.203 2.33,-3.11 3.54,-6.641 3.54,-10.528 0,-3.929 -1.21,-7.062 -3.54,-9.382 -2.54,-2.778 -6.09,-3.84 -10.59,-3.231 -33.62,4.684 -79.33,4.192 -137.02,-1.469 -5.86,-0.589 -9.97,1.469 -12.32,6.153 -2.16,4.297 -2.16,8.886 0,13.777 31.12,97.441 73.15,221.441 126.19,372.071 h -114.16" /><path
         id="path40"
         style="fill:#ffffff;fill-opacity:1;fill-rule:nonzero;stroke:none"
         d="m 2844.01,1072.91 c -0.73,4.28 0,8.19 2.38,11.74 2.74,3.89 6.64,5.83 11.75,5.83 h 105.91 c 4.5,0 8.03,-1.55 10.53,-4.68 2.38,-2.74 3.55,-6.04 3.55,-9.97 0,-3.93 -1.17,-7.23 -3.55,-10.01 -2.71,-3.11 -6.23,-4.67 -10.53,-4.67 h -90.96 V 890.07 h 90.96 c 4.5,0 8.03,-1.57 10.53,-4.679 2.38,-2.743 3.55,-6.063 3.55,-9.993 0,-3.91 -1.17,-7.207 -3.55,-9.949 -2.71,-3.109 -6.23,-4.699 -10.53,-4.699 h -90.96 V 697.91 h 90.96 c 4.5,0 8.03,-1.469 10.53,-4.441 2.38,-2.707 3.55,-6.039 3.55,-9.93 0,-3.937 -1.17,-7.269 -3.55,-9.98 -2.71,-3.137 -6.23,-4.7 -10.53,-4.7 h -105.66 c -4.48,0 -8.11,1.661 -10.85,5 -2.3,2.719 -3.53,5.942 -3.53,9.68 v 389.371" /><path
         id="path42"
         style="fill:#100f0d;fill-opacity:1;fill-rule:nonzero;stroke:none"
         d="m 2021.75,1846.13 h 0.02 l 0.05,0.49 v 0 l -0.07,-0.49" /><path
         id="path44"
         style="fill:#100f0d;fill-opacity:1;fill-rule:nonzero;stroke:none"
         d="m 2026.02,1846.16 -8.47,0.25 0.03,0.51 8.44,-0.62 -1.55,0.02 1.55,-0.16" /><path
         id="path46"
         style="fill:#100f0d;fill-opacity:1;fill-rule:nonzero;stroke:none"
         d="m 2016.49,1791.85 v -0.13 h 0.03 v 0.13 h -0.03" /><path
         id="path48"
         style="fill:#100f0d;fill-opacity:1;fill-rule:nonzero;stroke:none"
         d="m 2012.32,1791.15 -0.03,0.13 2.37,0.32 -2.4,0.25 h 4.23 l 4.19,0.57 -3.97,-0.61 4.01,-0.53 -5.61,0.31 -2.79,-0.44" /><path
         id="path50"
         style="fill:#100f0d;fill-opacity:1;fill-rule:nonzero;stroke:none"
         d="m 2035.05,1983.12 0.02,0.19 h -0.02 l -0.02,-0.19 h 0.02" /><path
         id="path52"
         style="fill:#100f0d;fill-opacity:1;fill-rule:nonzero;stroke:none"
         d="m 2035.05,1978.89 h -4.76 l 0.51,4.69 h 0.03 v 0.11 l 4.2,-0.23 v 3.9 l 0.02,-3.9 4.25,-0.15 v -4.22 l -4.25,-0.2" /><path
         id="path54"
         style="fill:#ffffff;fill-opacity:1;fill-rule:nonzero;stroke:none"
         d="m 1755.13,2920.34 c -13.23,1.5 -22.78,13.39 -21.31,26.68 l 2.38,21.34 c 1.62,14.57 9.17,27.56 21.28,36.45 11.51,8.55 25.86,12.29 40.38,10.71 30.85,-3.44 53.17,-30.22 49.84,-59.63 l -1.42,-13.18 c -1.54,-13.26 -13.57,-22.82 -26.73,-21.31 -13.23,1.48 -22.81,13.45 -21.31,26.68 l 1.47,13.16 c 0.3,2.6 -2.59,5.8 -7.19,6.26 -2.92,0.38 -7.95,-1.34 -8.33,-4.52 l -2.38,-21.3 c -1.41,-12.9 -12.93,-22.78 -26.68,-21.34 z m 211.75,-23.47 c -14.43,0 -25.63,12.52 -24.02,26.85 l 2.35,21.3 c 0.33,2.57 -2.58,5.77 -7.19,6.25 -3.15,0.43 -7.96,-1.42 -8.38,-4.57 l -1.42,-13.1 c -1.55,-13.3 -13.53,-22.66 -26.67,-21.33 -13.26,1.47 -22.81,13.43 -21.34,26.67 l 1.49,13.16 c 1.59,14.63 9.18,27.6 21.28,36.51 11.52,8.52 26.08,12.28 40.44,10.67 30.72,-3.43 53.11,-30.19 49.79,-59.61 l -2.3,-21.31 c -1.4,-12.34 -11.9,-21.49 -24.03,-21.49 z m 58.33,-21.71 c -14.5,0 -25.62,12.56 -24.03,26.85 l 2.79,25.4 c 1.06,9.15 7.18,16.97 15.96,20.06 20.65,7.39 23.75,14.26 23.75,14.35 -1.16,13.14 -61.87,51.16 -174.7,63.72 -112.73,12.61 -180.4,-11.08 -184.47,-23.96 v 0 c 0.05,0 1.73,-7.32 20.12,-18.94 7.82,-4.92 12.06,-13.91 11.03,-23.09 l -2.86,-25.39 c -1.47,-13.29 -13.21,-22.69 -26.65,-21.33 -13.25,1.51 -22.81,13.42 -21.36,26.71 l 1.29,11.22 c -26.87,21.24 -31.15,41.97 -29.57,56.29 2.32,20.7 18.75,48.34 83.96,62.33 42.35,9.01 96.97,10.5 153.84,4.17 56.92,-6.34 109.93,-19.84 149.26,-37.98 60.51,-27.98 70.38,-58.55 68.11,-79.26 -1.64,-14.39 -10.4,-33.63 -41.25,-48.41 l -1.21,-11.27 c -1.37,-12.35 -11.87,-21.47 -24.01,-21.47 z m -239.45,-209.79 c -0.89,0 -1.8,0.04 -2.74,0.13 -13.2,1.49 -22.75,13.41 -21.26,26.68 l 11.4,102.42 c 1.46,13.28 13.67,22.92 26.72,21.34 13.2,-1.49 22.75,-13.45 21.26,-26.7 l -11.41,-102.4 c -1.38,-12.35 -11.87,-21.47 -23.97,-21.47 z m -102.16,-8.08 c -0.89,0 -1.77,0.08 -2.69,0.15 -13.26,1.45 -22.8,13.42 -21.33,26.66 l 11.41,102.42 c 1.49,13.27 13.72,22.55 26.66,21.36 13.25,-1.5 22.82,-13.43 21.31,-26.7 l -11.39,-102.43 c -1.35,-12.35 -11.81,-21.46 -23.97,-21.46 z m 202.16,-3.1 c -0.89,0 -1.79,0.06 -2.7,0.15 -13.25,1.48 -22.84,13.43 -21.33,26.66 l 11.42,102.43 c 1.48,13.25 13.61,22.65 26.66,21.33 13.26,-1.47 22.82,-13.4 21.34,-26.67 l -11.41,-102.43 c -1.38,-12.35 -11.87,-21.47 -23.98,-21.47 z m 97.84,-30.33 c -0.9,0 -1.79,0.03 -2.7,0.12 -13.2,1.5 -22.78,13.43 -21.26,26.68 l 11.35,102.45 c 1.45,13.23 13.46,23.01 26.66,21.31 13.31,-1.49 22.8,-13.42 21.37,-26.68 l -11.41,-102.42 c -1.37,-12.33 -11.87,-21.46 -24.01,-21.46 z m 1.06,-84.93 c -41.18,18.35 -101.48,32.94 -165.47,40.1 -61.15,6.83 -119.11,6.33 -163.25,-1.35 -13.31,-2.22 -25.7,6.51 -27.98,19.62 -2.27,13.15 6.53,25.67 19.63,27.93 48.64,8.45 111.39,9.09 176.99,1.81 69.74,-7.79 133.54,-23.43 179.71,-44 12.16,-5.4 17.63,-19.68 12.25,-31.88 -5.58,-12.48 -20.05,-17.53 -31.88,-12.23 z m -226.94,-124.84 c -0.89,0 -1.77,0.06 -2.68,0.16 -13.25,1.47 -22.81,13.44 -21.33,26.71 l 11.42,102.39 c 1.47,13.23 13.72,22.6 26.72,21.33 13.23,-1.47 22.74,-13.4 21.26,-26.7 l -11.41,-102.4 c -1.38,-12.37 -11.82,-21.49 -23.98,-21.49 z m -102.14,-8.02 c -0.9,0 -1.82,0.1 -2.7,0.15 -13.25,1.49 -22.81,13.41 -21.34,26.66 l 11.41,102.42 c 1.55,13.28 13.72,22.51 26.71,21.36 13.24,-1.49 22.78,-13.45 21.34,-26.7 l -11.46,-102.4 c -1.38,-12.35 -11.84,-21.49 -23.96,-21.49 z m 202.14,-3.09 c -0.88,0 -1.77,0.02 -2.73,0.13 -13.25,1.49 -22.77,13.4 -21.3,26.69 l 11.41,102.43 c 1.57,13.23 13.68,22.6 26.73,21.31 13.23,-1.47 22.81,-13.42 21.31,-26.67 l -11.44,-102.44 c -1.37,-12.32 -11.83,-21.45 -23.98,-21.45 z m 97.9,-30.38 c -0.91,0 -1.79,0.07 -2.73,0.17 -13.26,1.47 -22.76,13.39 -21.34,26.66 l 11.46,102.43 c 1.41,13.23 13.84,22.55 26.65,21.33 13.3,-1.5 22.81,-13.41 21.32,-26.7 l -11.44,-102.4 c -1.38,-12.35 -11.84,-21.49 -23.92,-21.49 z m 11.95,-77.29 c -3.34,0 -6.67,0.62 -9.84,2.06 -41.17,18.31 -101.48,32.92 -165.46,40.05 -61.15,6.88 -119.12,6.35 -163.31,-1.31 -13.31,-2.16 -25.66,6.54 -27.94,19.65 -2.27,13.12 6.49,25.62 19.65,27.92 48.58,8.44 111.41,9.08 176.96,1.74 69.71,-7.73 133.54,-23.34 179.74,-43.99 12.14,-5.4 17.63,-19.67 12.21,-31.85 -4.02,-8.97 -12.85,-14.27 -22.01,-14.27 z m -236.96,-124.82 c -0.93,0 -1.87,0.07 -2.76,0.15 -13.25,1.49 -22.77,13.4 -21.27,26.66 l 11.42,102.44 c 1.45,13.23 13.7,22.6 26.63,21.34 13.28,-1.5 22.81,-13.43 21.34,-26.68 l -11.4,-102.43 c -1.44,-12.34 -11.88,-21.48 -23.96,-21.48 z m -102.18,-8.03 c -14.5,0 -25.62,12.58 -24.04,26.81 l 11.43,102.44 c 1.47,13.24 13.73,23.02 26.66,21.3 13.25,-1.45 22.83,-13.38 21.33,-26.67 l -11.42,-102.41 c -1.34,-12.33 -11.82,-21.47 -23.96,-21.47 z m 202.17,-3.11 c -0.95,0 -1.85,0.04 -2.76,0.16 -13.26,1.46 -22.79,13.4 -21.26,26.71 l 11.38,102.38 c 1.5,13.25 13.64,22.6 26.74,21.32 13.23,-1.49 22.75,-13.45 21.26,-26.66 l -11.4,-102.43 c -1.42,-12.36 -11.86,-21.48 -23.96,-21.48 z m 97.81,-30.36 c -0.88,0 -1.79,0.04 -2.68,0.13 -13.25,1.49 -22.8,13.43 -21.32,26.7 l 11.47,102.43 c 1.41,13.23 13.76,22.61 26.6,21.27 13.31,-1.45 22.81,-13.37 21.39,-26.68 l -11.48,-102.38 c -1.38,-12.33 -11.87,-21.47 -23.98,-21.47 z m 12.2,-75.3 c -3.34,0 -6.63,0.69 -9.86,2.12 -41.17,18.32 -101.48,32.93 -165.4,40.08 -61.16,6.8 -119.13,6.33 -163.31,-1.38 -13.41,-2.2 -25.66,6.5 -27.94,19.62 -2.27,13.2 6.49,25.68 19.65,28 48.54,8.38 111.41,9.03 176.92,1.74 69.69,-7.76 133.52,-23.38 179.72,-43.95 12.16,-5.44 17.69,-19.72 12.25,-31.89 -4.02,-8.97 -12.84,-14.34 -22.03,-14.34 z m -240,-127.43 c -13.26,1.45 -22.81,13.38 -21.32,26.69 l 11.44,102.38 c 1.47,13.26 13.79,22.55 26.65,21.31 13.28,-1.48 22.82,-13.39 21.37,-26.68 l -11.48,-102.39 c -1.44,-12.87 -12.93,-22.76 -26.66,-21.31 z m -102.18,-8.04 c -13.23,1.49 -22.79,13.4 -21.32,26.65 l 11.46,102.39 c 1.46,13.23 13.83,22.75 26.66,21.33 13.26,-1.45 22.81,-13.42 21.34,-26.68 l -11.46,-102.36 c -1.42,-12.92 -12.94,-22.75 -26.68,-21.33 z m 204.87,-3.29 c -0.89,0 -1.8,0.06 -2.68,0.17 -13.28,1.44 -22.77,13.42 -21.34,26.68 l 11.46,102.36 c 1.47,13.26 13.73,22.56 26.66,21.32 13.25,-1.47 22.79,-13.41 21.32,-26.66 l -11.41,-102.4 c -1.41,-12.31 -11.87,-21.47 -24.01,-21.47 z m 95.19,-30.19 c -13.24,1.47 -22.81,13.42 -21.32,26.7 l 11.44,102.36 c 1.44,13.28 13.64,22.49 26.62,21.32 13.31,-1.47 22.79,-13.39 21.4,-26.66 l -11.54,-102.38 c -1.31,-12.9 -12.87,-22.78 -26.6,-21.34 z m 15.14,-72.59 c -3.3,0 -6.64,0.7 -9.8,2.12 -41.13,18.29 -101.42,32.9 -165.46,40.06 -61.15,6.81 -119.13,6.32 -163.27,-1.34 -13.3,-2.18 -25.67,6.45 -27.93,19.61 -2.26,13.18 6.5,25.68 19.66,27.96 48.56,8.46 111.33,9.06 176.9,1.76 69.78,-7.82 133.57,-23.39 179.74,-43.95 12.16,-5.44 17.69,-19.7 12.25,-31.89 -4.02,-8.97 -12.82,-14.33 -22.09,-14.33 z m -242,-145.93 c -13.31,1.48 -22.83,13.43 -21.34,26.68 l 11.41,102.41 c 1.53,13.27 13.78,22.63 26.73,21.31 13.24,-1.47 22.79,-13.4 21.26,-26.64 l -11.4,-102.44 c -1.42,-12.87 -12.94,-22.75 -26.66,-21.32 z m -102.16,-8.02 c -13.27,1.48 -22.82,13.39 -21.35,26.64 l 11.4,102.44 c 1.52,13.24 13.8,22.53 26.73,21.34 13.26,-1.49 22.81,-13.47 21.32,-26.72 l -11.44,-102.4 c -1.44,-12.9 -12.95,-22.73 -26.66,-21.3 z m 202.15,-3.13 c -13.26,1.49 -22.81,13.42 -21.34,26.7 l 11.4,102.36 c 1.49,13.28 13.75,22.67 26.68,21.3 13.31,-1.44 22.81,-13.35 21.37,-26.66 l -11.46,-102.37 c -1.47,-13.57 -13.93,-22.94 -26.65,-21.33 z m 100.59,-30.52 c -0.91,0 -1.79,0.1 -2.7,0.16 -13.26,1.49 -22.83,13.44 -21.39,26.66 l 11.46,102.42 c 1.47,13.27 13.61,22.88 26.67,21.35 13.24,-1.49 22.81,-13.4 21.26,-26.69 l -11.34,-102.41 c -1.38,-12.35 -11.82,-21.49 -23.96,-21.49 z m 83.03,-9.24 c -0.88,0 -1.85,0.07 -2.74,0.18 -13.21,1.46 -22.76,13.37 -21.27,26.66 l 126.08,1130.46 c -3.21,12.97 -70.01,53.98 -208.76,69.45 -138.8,15.51 -213.06,-9.81 -219.17,-22.48 L 1503.52,1689.84 c -1.49,-13.27 -13.57,-22.63 -26.66,-21.31 -13.31,1.49 -22.82,13.38 -21.33,26.69 l 126.08,1130.46 c 3.43,31.07 35.36,52.09 94.98,62.55 48.57,8.52 111.56,9.21 177.28,1.84 65.74,-7.31 127.03,-21.84 172.55,-40.87 55.87,-23.31 82.3,-50.84 78.82,-81.96 L 1979.26,1636.81 c -1.4,-12.36 -11.88,-21.5 -24.02,-21.5 z m 59.93,-212.46 c -13.24,1.49 -22.81,13.43 -21.28,26.67 l 12.14,109.4 -598.31,66.68 -12.42,-112.03 c -1.57,-13.22 -13.74,-22.75 -26.74,-21.3 -13.25,1.43 -22.74,13.43 -21.33,26.7 l 15.22,135.99 c 1.47,13.25 13.67,22.73 26.66,21.32 l 646.28,-72.07 c 13.31,-1.47 22.82,-13.42 21.35,-26.68 l -14.84,-133.32 c -1.43,-12.92 -12.93,-22.78 -26.73,-21.36 z m -515.88,-9.99 c -13.25,1.47 -22.8,13.39 -21.33,26.68 l 11.52,102.91 c 0.31,3.21 -4.08,6.08 -7.26,6.43 -4,0.32 -7.74,-0.97 -8.58,-5.27 l -9.12,-67.56 c -1.84,-13.21 -14.28,-22.31 -27.21,-20.67 -13.22,1.8 -22.51,13.97 -20.69,27.19 l 9.19,67.53 c 3.04,27.85 29.51,50.22 61.76,46.77 30.71,-3.42 53.28,-29.82 49.9,-59.78 l -11.52,-102.91 c -1.41,-12.9 -12.88,-22.79 -26.66,-21.32 z m 374.04,-31.6 c -13.26,1.45 -22.82,13.39 -21.34,26.65 l 10.32,92.93 c 3.34,29.72 30.83,50.79 61.91,47.33 30.19,-3.36 53.27,-29.37 49.86,-59.79 l -4.04,-63.51 c -0.9,-13.31 -12.83,-23.22 -25.67,-22.54 -13.35,0.87 -23.49,12.35 -22.55,25.64 l 4.14,64.68 c 0.45,4.27 -3.91,7.14 -7.08,7.53 -2.61,0.25 -5.08,-0.36 -6.72,-1.68 l -12.14,-95.94 c -1.48,-12.92 -12.94,-22.76 -26.69,-21.3 z m -230.61,-3.5 c -13.23,1.5 -22.79,13.47 -21.31,26.66 l 13.61,121.76 c 0.34,3.06 -2.94,5.97 -7.29,6.45 -3.21,0.44 -8.12,-1.48 -8.49,-4.68 l -12.57,-112.6 c -1.46,-13.31 -13.49,-22.88 -26.65,-21.31 -13.27,1.45 -22.82,13.42 -21.31,26.66 l 12.54,112.62 c 3.28,29.71 30.79,50.71 61.84,47.29 30.81,-3.43 53.21,-30.25 49.92,-59.76 l -13.55,-121.75 c -1.5,-12.9 -12.94,-22.77 -26.74,-21.34 z m 81.79,-9.11 c -13.24,1.47 -22.75,13.4 -21.32,26.71 l 13.62,121.72 c 3.34,30.23 31.38,50.69 61.85,47.33 30.75,-3.43 53.21,-30.25 49.92,-59.77 l -11.82,-105.54 c -1.42,-13.26 -13.67,-22.66 -26.64,-21.34 -13.29,1.5 -22.83,13.47 -21.36,26.66 l 11.79,105.52 c 0.38,3.08 -2.91,5.97 -7.31,6.47 -3.1,0.41 -8.06,-1.47 -8.44,-4.69 L 1751.24,1370 c -1.41,-12.92 -12.92,-22.77 -26.73,-21.35" /><path
         id="path56"
         style="fill:#ffffff;fill-opacity:1;fill-rule:nonzero;stroke:none"
         d="m 839.629,2301.64 c -11.348,-248.98 76.238,-469.6 220.001,-647.34 -119.579,169.99 -185.47,381.33 -173.329,607.08 15.687,291.5 158.039,545.34 369.239,708.94 v 79.97 C 1021.03,2892.74 854.563,2630.42 839.629,2301.64" /><path
         id="path58"
         style="fill:#ffffff;fill-opacity:1;fill-rule:nonzero;stroke:none"
         d="m 2627.33,2044.51 c 0,206.69 -99.37,389.51 -251.79,501.53 v -96.88 c 118.22,-112.67 192.26,-273.29 192.26,-451.64 0,-178.31 -74.11,-338.77 -192.26,-451.42 v -2.97 c 152.38,112.03 251.79,294.76 251.79,501.38" /><path
         id="path60"
         style="fill:#ffffff;fill-opacity:1;fill-rule:nonzero;stroke:none"
         d="m 2361.16,1532.56 c 4.9,3.38 9.58,7.06 14.38,10.57 v 2.97 c -4.78,-4.55 -9.48,-9.16 -14.38,-13.54" /><path
         id="path62"
         style="fill:#f4f5f5;fill-opacity:1;fill-rule:nonzero;stroke:none"
         d="m 454.723,482.531 c 9.855,0.719 17.312,3.739 22.39,9.039 4.492,4.668 6.457,10.2 5.871,16.641 -0.566,6.461 -2.98,11.48 -7.265,15.059 -4.434,3.589 -11.422,5.371 -20.996,5.371 z m -10.703,47.278 c -0.93,0.992 -1,2.031 -0.211,3.171 0.847,1.25 2.418,1.918 4.703,2 16.562,0.641 28.379,-1.929 35.437,-7.71 6.438,-5.34 9.684,-12.079 9.739,-20.239 0.082,-8.832 -3.02,-15.871 -9.309,-21.082 -2.848,-2.328 -6.527,-4.328 -11.024,-6.027 1.926,-4.813 5.102,-10.363 9.54,-16.613 l 2.886,-4 3.004,-4.02 c 2.621,-3.527 4.582,-6.23 5.883,-8.078 0.648,-0.91 0.664,-1.801 0.098,-2.672 -0.567,-0.769 -1.453,-1.379 -2.68,-1.809 -1.207,-0.421 -2.414,-0.57 -3.629,-0.449 -1.355,0.219 -2.359,0.789 -2.996,1.699 -1.359,1.93 -3.359,4.661 -6.004,8.211 l -3.102,4.059 -2.882,4.078 c -4.571,6.383 -7.899,12 -9.965,16.891 -2.856,-0.571 -5.781,-0.957 -8.785,-1.168 V 445.32 c 0,-0.98 -0.567,-1.761 -1.7,-2.32 -1.003,-0.52 -2.226,-0.781 -3.644,-0.781 -1.434,0 -2.641,0.261 -3.641,0.781 -1.133,0.602 -1.718,1.371 -1.718,2.32 v 84.489" /><path
         id="path64"
         style="fill:#f4f5f5;fill-opacity:1;fill-rule:nonzero;stroke:none"
         d="m 586.656,531.301 c -0.285,0.937 0,1.808 0.867,2.578 1,0.871 2.415,1.293 4.27,1.293 h 38.668 c 1.617,0 2.922,-0.344 3.852,-1.031 0.843,-0.602 1.277,-1.332 1.277,-2.2 0,-0.871 -0.434,-1.589 -1.277,-2.191 -1.008,-0.699 -2.286,-1.039 -3.852,-1.039 H 597.266 V 490.98 h 33.195 c 1.617,0 2.922,-0.332 3.852,-1.011 0.843,-0.629 1.277,-1.34 1.277,-2.207 0,-0.871 -0.434,-1.614 -1.277,-2.203 -1.008,-0.688 -2.286,-1.028 -3.852,-1.028 h -33.195 v -35.91 h 33.195 c 1.617,0 2.922,-0.32 3.852,-0.961 0.843,-0.601 1.277,-1.34 1.277,-2.211 0,-0.847 -0.434,-1.59 -1.277,-2.187 -1.008,-0.703 -2.286,-1.043 -3.852,-1.043 h -38.559 c -1.644,0 -2.961,0.359 -3.964,1.09 -0.848,0.613 -1.282,1.332 -1.282,2.14 v 85.852" /><path
         id="path66"
         style="fill:#f4f5f5;fill-opacity:1;fill-rule:nonzero;stroke:none"
         d="m 731.445,505.621 c 2.719,-4.492 8.379,-9.48 17.032,-14.953 l 5.246,-3.309 c 2.058,-1.281 3.777,-2.398 5.14,-3.359 3.852,-2.531 6.883,-4.98 9.098,-7.301 5.266,-5.347 8.059,-11.129 8.344,-17.34 0.281,-7.449 -3.887,-12.558 -12.52,-15.269 -8.082,-2.59 -16.273,-2.5 -24.637,0.262 -7.625,2.546 -13.125,6.457 -16.48,11.707 -0.566,0.91 -0.496,1.703 0.207,2.402 0.641,0.641 1.68,1.07 3.117,1.277 1.41,0.231 2.735,0.192 3.957,-0.109 1.422,-0.399 2.422,-1.039 3.004,-1.949 1.625,-2.578 4.235,-4.739 7.801,-6.469 3.871,-1.859 8.008,-2.699 12.422,-2.52 4.777,0.207 8.25,1.758 10.383,4.649 1.64,2.34 2.254,5.121 1.832,8.34 -0.641,5.238 -4.36,10.332 -11.137,15.332 -2.004,1.476 -5.137,3.566 -9.426,6.289 l -4.926,3.097 c -1.851,1.172 -3.418,2.231 -4.699,3.172 -9.14,6.59 -14.578,13.41 -16.273,20.45 -0.946,3.839 -0.832,7.449 0.316,10.859 1.422,4.019 4.176,7.133 8.234,9.383 4.493,2.488 9.645,4.047 15.426,4.66 5.926,0.637 11.629,0.168 17.121,-1.442 8.578,-2.492 13.86,-7.558 15.848,-15.199 0.223,-0.929 -0.137,-1.793 -1.062,-2.5 -0.793,-0.703 -1.907,-1.152 -3.325,-1.363 -1.355,-0.227 -2.605,-0.148 -3.754,0.184 -1.211,0.378 -1.921,1.078 -2.132,2.078 -0.286,1.019 -0.528,1.871 -0.758,2.511 -0.356,0.95 -0.739,1.809 -1.168,2.598 -1.078,1.891 -2.528,3.352 -4.399,4.391 -2.496,1.3 -5.554,2.129 -9.199,2.531 -3.926,0.379 -7.246,0.129 -9.965,-0.781 -5.988,-1.969 -9.593,-5.282 -10.8,-9.899 -1.075,-3.972 -0.364,-8.109 2.132,-12.41" /><path
         id="path68"
         style="fill:#f4f5f5;fill-opacity:1;fill-rule:nonzero;stroke:none"
         d="m 873.988,528.578 c -1.64,0 -2.929,0.332 -3.851,1.043 -0.867,0.598 -1.282,1.34 -1.282,2.18 0,0.871 0.415,1.609 1.282,2.219 1.008,0.679 2.285,1.031 3.851,1.031 h 51.602 c 1.64,0 2.926,-0.352 3.851,-1.031 0.868,-0.61 1.282,-1.348 1.282,-2.219 0,-0.84 -0.414,-1.582 -1.282,-2.18 -1.003,-0.711 -2.324,-1.043 -3.968,-1.043 H 905.141 V 445.32 c 0,-0.98 -0.567,-1.761 -1.719,-2.32 -1,-0.52 -2.207,-0.781 -3.649,-0.781 -1.41,0 -2.621,0.261 -3.617,0.781 -1.152,0.602 -1.718,1.371 -1.718,2.32 v 83.258 h -20.45" /><path
         id="path70"
         style="fill:#f4f5f5;fill-opacity:1;fill-rule:nonzero;stroke:none"
         d="m 1025.61,500.82 c -3,-15.211 -5.57,-26.75 -7.7,-34.601 h 21.62 c -2,10.211 -3.86,19.39 -5.57,27.492 -1.98,9.328 -3.74,16.82 -5.23,22.519 v 0.192 l -1.61,-7.844 z m -14.67,-56.199 c -0.35,-0.961 -1.17,-1.621 -2.45,-2 -1.15,-0.359 -2.4,-0.41 -3.76,-0.211 -1.41,0.231 -2.53,0.68 -3.3,1.36 -0.87,0.742 -1.08,1.582 -0.64,2.531 2.7,7.25 5.23,15.469 7.58,24.64 1.57,6.297 3.46,14.86 5.69,25.668 l 2.57,12.879 c 1,4.832 1.92,9.102 2.77,12.821 l 0.23,1.421 0.32,1.411 c 0.21,1.257 0.42,2.269 0.64,3.039 0.7,2.379 1.89,4.211 3.54,5.511 2.05,1.629 4.34,1.86 6.85,0.637 2.06,-0.996 3.49,-2.348 4.26,-4.066 2.23,-5.172 4.15,-11.41 5.8,-18.692 0.49,-2.379 1.13,-5.558 1.92,-9.519 l 0.97,-4.723 0.96,-4.656 c 2.85,-13.582 5.93,-29.383 9.21,-47.41 0.21,-0.953 -0.19,-1.703 -1.18,-2.262 -0.93,-0.52 -2.1,-0.781 -3.54,-0.781 -3.56,0 -5.53,1.043 -5.88,3.101 l -0.12,0.711 -2.56,13.707 h -24.74 c -1.57,-5.379 -3.27,-10.418 -5.14,-15.117" /><path
         id="path72"
         style="fill:#f4f5f5;fill-opacity:1;fill-rule:nonzero;stroke:none"
         d="m 1184.64,443.852 c -7.27,-2.383 -14.16,-2.141 -20.66,0.687 -5.49,2.422 -9.64,6.063 -12.42,10.93 -3.28,5.609 -5.46,12.242 -6.53,19.871 -0.72,4.832 -1.11,11.629 -1.17,20.371 0,4.187 0.21,10.23 0.64,18.117 l 0.41,8.992 c 0.16,3.36 0.23,6.379 0.23,9.059 0,0.98 0.57,1.762 1.7,2.332 1,0.5 2.23,0.769 3.64,0.769 1.44,0 2.65,-0.269 3.65,-0.769 1.13,-0.609 1.72,-1.402 1.72,-2.41 -0.08,-2.75 -0.19,-5.903 -0.32,-9.442 l -0.44,-9.507 c -0.43,-8.102 -0.6,-14.422 -0.53,-18.942 0.14,-8.719 0.78,-15.969 1.93,-21.75 0.72,-3.621 1.45,-6.531 2.25,-8.719 1.07,-3.25 2.53,-6.019 4.38,-8.339 1.56,-1.993 3.19,-3.481 4.83,-4.481 2.26,-1.41 4.87,-2.062 7.8,-1.93 2.64,0.118 5.08,1.008 7.28,2.649 1.65,1.211 3.08,2.75 4.29,4.66 3.49,5.52 5.81,12.059 6.95,19.66 0.43,3.02 0.72,6.41 0.87,10.16 l 0.11,5.039 v 4.981 c 0.06,4.148 -0.15,10.16 -0.66,18.051 l -0.42,8.98 c -0.15,3.391 -0.22,6.367 -0.22,9.008 0,0.98 0.54,1.762 1.62,2.332 0.98,0.5 2.21,0.769 3.63,0.769 1.5,0 2.75,-0.269 3.75,-0.769 1.06,-0.609 1.61,-1.402 1.61,-2.41 0.07,-3.789 0.24,-8.68 0.53,-14.66 l 0.32,-7.332 0.32,-7.36 c 0.35,-11.648 -0.17,-21.429 -1.61,-29.379 l -0.32,-1.808 -0.32,-1.871 c -0.28,-1.512 -0.6,-2.871 -0.96,-4.082 -0.79,-3.188 -1.77,-5.989 -3,-8.399 -3.21,-6.551 -8.18,-10.922 -14.88,-13.058" /><path
         id="path74"
         style="fill:#f4f5f5;fill-opacity:1;fill-rule:nonzero;stroke:none"
         d="m 1308.87,482.531 c 9.86,0.719 17.31,3.739 22.39,9.039 4.5,4.668 6.46,10.2 5.87,16.641 -0.56,6.461 -2.98,11.48 -7.27,15.059 -4.44,3.589 -11.42,5.371 -20.99,5.371 z m -10.71,47.278 c -0.92,0.992 -0.99,2.031 -0.2,3.171 0.84,1.25 2.41,1.918 4.7,2 16.55,0.641 28.37,-1.929 35.44,-7.71 6.43,-5.34 9.68,-12.079 9.74,-20.239 0.08,-8.832 -3.02,-15.871 -9.31,-21.082 -2.86,-2.328 -6.53,-4.328 -11.03,-6.027 1.93,-4.813 5.1,-10.363 9.54,-16.613 l 2.89,-4 3,-4.02 c 2.62,-3.527 4.59,-6.23 5.89,-8.078 0.64,-0.91 0.66,-1.801 0.1,-2.672 -0.57,-0.769 -1.46,-1.379 -2.68,-1.809 -1.22,-0.421 -2.43,-0.57 -3.63,-0.449 -1.36,0.219 -2.36,0.789 -3.01,1.699 -1.35,1.93 -3.35,4.661 -6,8.211 l -3.09,4.059 -2.89,4.078 c -4.57,6.383 -7.89,12 -9.97,16.891 -2.85,-0.571 -5.78,-0.957 -8.78,-1.168 V 445.32 c 0,-0.98 -0.57,-1.761 -1.7,-2.32 -1,-0.52 -2.23,-0.781 -3.64,-0.781 -1.44,0 -2.65,0.261 -3.65,0.781 -1.13,0.602 -1.72,1.371 -1.72,2.32 v 84.489" /><path
         id="path76"
         style="fill:#f4f5f5;fill-opacity:1;fill-rule:nonzero;stroke:none"
         d="m 1463.61,500.82 c -3,-15.211 -5.57,-26.75 -7.71,-34.601 h 21.62 c -2,10.211 -3.85,19.39 -5.57,27.492 -1.98,9.328 -3.73,16.82 -5.23,22.519 v 0.192 l -1.6,-7.844 z m -14.67,-56.199 c -0.36,-0.961 -1.17,-1.621 -2.45,-2 -1.15,-0.359 -2.4,-0.41 -3.77,-0.211 -1.41,0.231 -2.52,0.68 -3.3,1.36 -0.87,0.742 -1.07,1.582 -0.64,2.531 2.7,7.25 5.23,15.469 7.59,24.64 1.57,6.297 3.46,14.86 5.68,25.668 l 2.57,12.879 c 1.01,4.832 1.93,9.102 2.78,12.821 l 0.22,1.421 0.32,1.411 c 0.21,1.257 0.42,2.269 0.65,3.039 0.7,2.379 1.88,4.211 3.52,5.511 2.06,1.629 4.35,1.86 6.86,0.637 2.06,-0.996 3.5,-2.348 4.27,-4.066 2.22,-5.172 4.15,-11.41 5.79,-18.692 0.49,-2.379 1.14,-5.558 1.93,-9.519 l 0.96,-4.723 0.97,-4.656 c 2.85,-13.582 5.92,-29.383 9.21,-47.41 0.2,-0.953 -0.19,-1.703 -1.19,-2.262 -0.92,-0.52 -2.1,-0.781 -3.53,-0.781 -3.57,0 -5.53,1.043 -5.9,3.101 l -0.1,0.711 -2.57,13.707 h -24.73 c -1.57,-5.379 -3.27,-10.418 -5.14,-15.117" /><path
         id="path78"
         style="fill:#f4f5f5;fill-opacity:1;fill-rule:nonzero;stroke:none"
         d="m 1571.25,528.578 c -1.65,0 -2.93,0.332 -3.86,1.043 -0.86,0.598 -1.29,1.34 -1.29,2.18 0,0.871 0.43,1.609 1.29,2.219 1,0.679 2.29,1.031 3.86,1.031 h 51.59 c 1.65,0 2.93,-0.352 3.85,-1.031 0.87,-0.61 1.29,-1.348 1.29,-2.219 0,-0.84 -0.42,-1.582 -1.29,-2.18 -1,-0.711 -2.32,-1.043 -3.96,-1.043 H 1602.4 V 445.32 c 0,-0.98 -0.57,-1.761 -1.72,-2.32 -1,-0.52 -2.21,-0.781 -3.65,-0.781 -1.41,0 -2.62,0.261 -3.62,0.781 -1.15,0.602 -1.72,1.371 -1.72,2.32 v 83.258 h -20.44" /><path
         id="path80"
         style="fill:#f4f5f5;fill-opacity:1;fill-rule:nonzero;stroke:none"
         d="m 1730.27,445.32 c 0,-0.98 -0.53,-1.761 -1.6,-2.32 -1,-0.52 -2.21,-0.781 -3.65,-0.781 -1.42,0 -2.64,0.261 -3.64,0.781 -1.14,0.602 -1.71,1.371 -1.71,2.32 v 86.809 c 0,0.961 0.57,1.742 1.71,2.34 1,0.472 2.22,0.703 3.64,0.703 1.44,0 2.65,-0.25 3.65,-0.781 1.07,-0.539 1.6,-1.34 1.6,-2.321 v -86.75" /><path
         id="path82"
         style="fill:#f4f5f5;fill-opacity:1;fill-rule:nonzero;stroke:none"
         d="m 1835.98,510.078 c -2.57,-7.898 -3.61,-16.726 -3.1,-26.527 0.57,-10.723 2.7,-19 6.42,-24.77 2.21,-3.359 4.89,-5.929 8.03,-7.711 4.2,-2.359 8.81,-2.961 13.81,-1.808 4.34,1 7.92,3.027 10.71,6.097 2,2.231 3.64,5.121 4.93,8.672 1.85,5.207 2.94,11.739 3.3,19.59 0.36,10.649 -0.68,19.469 -3.09,26.457 -0.44,1.082 -0.76,1.961 -0.97,2.66 -0.43,1.024 -0.85,2 -1.28,2.91 -1.16,2.364 -2.4,4.403 -3.76,6.071 -3.7,4.609 -8.55,6.972 -14.55,7.051 -5.99,-0.25 -10.84,-2.629 -14.56,-7.122 -1.36,-1.679 -2.57,-3.679 -3.64,-6 -0.78,-1.57 -1.53,-3.429 -2.25,-5.57 z m 14.46,-67.269 c -9.58,1.679 -16.71,6.441 -21.41,14.293 -4.65,7.757 -6.93,17.918 -6.85,30.468 0.05,13.032 2.24,23.352 6.53,30.981 5.7,10.14 14.48,15.66 26.31,16.558 h 0.12 c 0.87,0.032 1.83,0.032 2.89,0 0.36,0 0.72,-0.019 1.07,-0.058 h 0.44 0.32 c 4.42,-0.43 8.24,-1.512 11.44,-3.25 5.08,-2.75 9.1,-6.582 12.1,-11.512 2.29,-3.66 4.05,-8.141 5.25,-13.449 2.21,-9.57 2.72,-19.641 1.5,-30.199 -1.14,-10.352 -3.86,-18.129 -8.14,-23.301 -3.21,-3.789 -7.48,-6.719 -12.84,-8.801 -6.06,-2.32 -12.31,-2.898 -18.73,-1.73" /><path
         id="path84"
         style="fill:#f4f5f5;fill-opacity:1;fill-rule:nonzero;stroke:none"
         d="m 1984.18,530.648 c -1.56,1.59 -0.85,2.852 2.14,3.821 3,0.98 5.48,0.672 7.4,-0.91 v -0.079 l 0.09,-0.05 c 5.29,-4.36 10.03,-11.039 14.26,-20.051 1.56,-3.359 3.34,-7.438 5.34,-12.231 l 2.45,-6.136 2.48,-6.16 2.68,-6.532 2.66,-6.531 c 2.15,-4.969 4.2,-9.269 6.12,-12.937 l 1.38,-2.661 v 72.278 c 0,0.98 0.58,1.761 1.72,2.32 1,0.512 2.2,0.77 3.64,0.77 1.41,0 2.64,-0.258 3.64,-0.77 1.13,-0.598 1.7,-1.379 1.7,-2.32 v -87.02 c 0,-1.719 -1.41,-2.738 -4.27,-3.039 -1.99,-0.43 -3.75,-0.172 -5.25,0.781 -2.64,1.668 -5,4.149 -7.07,7.368 -0.7,1.121 -1.5,2.543 -2.35,4.211 l -1.07,2.058 -1.08,1.953 c -2,3.719 -4.06,7.93 -6.21,12.688 l -2.66,6.402 -2.68,6.399 -2.57,6.589 -2.68,6.551 c -2.08,5.168 -3.97,9.508 -5.66,13.059 -1.36,2.972 -2.55,5.351 -3.55,7.101 v -71.851 c 0,-1.008 -0.53,-1.778 -1.61,-2.328 -1,-0.532 -2.25,-0.77 -3.74,-0.77 -1.43,0 -2.64,0.258 -3.64,0.828 -1.08,0.571 -1.61,1.34 -1.61,2.321 v 84.878" /><path
         id="path86"
         style="fill:#f4f5f5;fill-opacity:1;fill-rule:nonzero;stroke:none"
         d="m 2260.57,482.531 c 9.85,0.719 17.31,3.739 22.39,9.039 4.49,4.668 6.46,10.2 5.87,16.641 -0.56,6.461 -2.98,11.48 -7.27,15.059 -4.44,3.589 -11.42,5.371 -20.99,5.371 z m -10.71,47.278 c -0.92,0.992 -1,2.031 -0.21,3.171 0.86,1.25 2.43,1.918 4.71,2 16.55,0.641 28.37,-1.929 35.43,-7.71 6.45,-5.34 9.69,-12.079 9.75,-20.239 0.07,-8.832 -3.03,-15.871 -9.31,-21.082 -2.85,-2.328 -6.53,-4.328 -11.03,-6.027 1.93,-4.813 5.1,-10.363 9.54,-16.613 l 2.89,-4 2.99,-4.02 c 2.63,-3.527 4.59,-6.23 5.9,-8.078 0.64,-0.91 0.66,-1.801 0.09,-2.672 -0.57,-0.769 -1.45,-1.379 -2.68,-1.809 -1.21,-0.421 -2.42,-0.57 -3.62,-0.449 -1.36,0.219 -2.36,0.789 -3.01,1.699 -1.36,1.93 -3.36,4.661 -6,8.211 l -3.1,4.059 -2.89,4.078 c -4.56,6.383 -7.88,12 -9.96,16.891 -2.86,-0.571 -5.78,-0.957 -8.78,-1.168 V 445.32 c 0,-0.98 -0.57,-1.761 -1.7,-2.32 -1,-0.52 -2.23,-0.781 -3.65,-0.781 -1.43,0 -2.64,0.261 -3.64,0.781 -1.13,0.602 -1.72,1.371 -1.72,2.32 v 84.489" /><path
         id="path88"
         style="fill:#f4f5f5;fill-opacity:1;fill-rule:nonzero;stroke:none"
         d="m 2415.33,500.82 c -3.01,-15.211 -5.57,-26.75 -7.71,-34.601 h 21.62 c -2,10.211 -3.85,19.39 -5.57,27.492 -1.99,9.328 -3.73,16.82 -5.23,22.519 v 0.192 l -1.6,-7.844 z m -14.67,-56.199 c -0.36,-0.961 -1.17,-1.621 -2.46,-2 -1.15,-0.359 -2.39,-0.41 -3.75,-0.211 -1.42,0.231 -2.53,0.68 -3.31,1.36 -0.87,0.742 -1.08,1.582 -0.64,2.531 2.7,7.25 5.23,15.469 7.59,24.64 1.57,6.297 3.46,14.86 5.68,25.668 l 2.57,12.879 c 1,4.832 1.93,9.102 2.78,12.821 l 0.22,1.421 0.32,1.411 c 0.21,1.257 0.42,2.269 0.65,3.039 0.69,2.379 1.88,4.211 3.53,5.511 2.05,1.629 4.33,1.86 6.85,0.637 2.05,-0.996 3.49,-2.348 4.27,-4.066 2.22,-5.172 4.15,-11.41 5.79,-18.692 0.5,-2.379 1.13,-5.558 1.93,-9.519 l 0.96,-4.723 0.96,-4.656 c 2.86,-13.582 5.93,-29.383 9.22,-47.41 0.2,-0.953 -0.19,-1.703 -1.19,-2.262 -0.93,-0.52 -2.1,-0.781 -3.54,-0.781 -3.56,0 -5.53,1.043 -5.89,3.101 l -0.11,0.711 -2.57,13.707 h -24.72 c -1.58,-5.379 -3.27,-10.418 -5.14,-15.117" /><path
         id="path90"
         style="fill:#f4f5f5;fill-opacity:1;fill-rule:nonzero;stroke:none"
         d="m 2545,482.852 c 9.85,0.769 17.31,3.789 22.39,9.039 4.49,4.668 6.45,10.179 5.87,16.57 -0.57,6.461 -2.99,11.488 -7.27,15.078 -4.44,3.563 -11.42,5.359 -20.99,5.359 z m -10.71,47.218 c -0.93,0.981 -1,2.039 -0.21,3.18 0.85,1.238 2.41,1.891 4.7,1.988 16.56,0.641 28.37,-1.929 35.44,-7.699 6.44,-5.309 9.69,-12.027 9.74,-20.18 0.08,-8.839 -3.02,-15.839 -9.31,-21.007 -3.36,-2.731 -7.74,-4.973 -13.15,-6.75 -5.22,-1.723 -10.7,-2.782 -16.5,-3.172 v -31.11 c 0,-0.98 -0.58,-1.761 -1.7,-2.32 -1.01,-0.52 -2.23,-0.781 -3.65,-0.781 -1.44,0 -2.64,0.261 -3.64,0.781 -1.14,0.602 -1.72,1.371 -1.72,2.32 v 84.75" /><path
         id="path92"
         style="fill:#f4f5f5;fill-opacity:1;fill-rule:nonzero;stroke:none"
         d="m 2686.04,445.32 c 0,-0.98 -0.53,-1.761 -1.6,-2.32 -1,-0.52 -2.21,-0.781 -3.64,-0.781 -1.42,0 -2.64,0.261 -3.65,0.781 -1.13,0.602 -1.7,1.371 -1.7,2.32 v 86.809 c 0,0.961 0.57,1.742 1.7,2.34 1.01,0.472 2.23,0.703 3.65,0.703 1.43,0 2.64,-0.25 3.64,-0.781 1.07,-0.539 1.6,-1.34 1.6,-2.321 v -86.75" /><path
         id="path94"
         style="fill:#f4f5f5;fill-opacity:1;fill-rule:nonzero;stroke:none"
         d="m 2788.87,449.469 c 13.2,2.293 22.65,8.211 28.37,17.781 4.34,7.332 6.21,16.051 5.58,26.141 -0.59,8.828 -3.08,16.199 -7.5,22.05 -5.85,7.719 -14.68,12.098 -26.45,13.137 z m -10.71,80.281 c -1.36,0.898 -1.64,2.02 -0.85,3.359 0.77,1.379 2.38,2.102 4.81,2.129 17.28,0.313 30.47,-4.226 39.62,-13.59 7.35,-7.539 11.23,-16.949 11.66,-28.257 0.57,-12.969 -2.57,-23.832 -9.41,-32.532 -8.63,-10.918 -22.5,-17.109 -41.54,-18.578 -2.29,-0.172 -3.82,0.297 -4.61,1.43 -0.79,1.039 -0.68,2.109 0.32,3.23 v 82.809" /><path
         id="path96"
         style="fill:#f4f5f5;fill-opacity:1;fill-rule:nonzero;stroke:none"
         d="m 2925.73,531.301 c -0.3,0.937 0,1.808 0.86,2.578 1,0.871 2.43,1.293 4.26,1.293 h 38.68 c 1.63,0 2.93,-0.344 3.84,-1.031 0.85,-0.602 1.29,-1.332 1.29,-2.2 0,-0.871 -0.44,-1.589 -1.29,-2.191 -0.99,-0.699 -2.28,-1.039 -3.84,-1.039 h -33.19 V 490.98 h 33.19 c 1.63,0 2.93,-0.332 3.84,-1.011 0.85,-0.629 1.29,-1.34 1.29,-2.207 0,-0.871 -0.44,-1.614 -1.29,-2.203 -0.99,-0.688 -2.28,-1.028 -3.84,-1.028 h -33.19 v -35.91 h 33.19 c 1.63,0 2.93,-0.32 3.84,-0.961 0.85,-0.601 1.29,-1.34 1.29,-2.211 0,-0.847 -0.44,-1.59 -1.29,-2.187 -0.99,-0.703 -2.28,-1.043 -3.84,-1.043 h -38.55 c -1.64,0 -2.97,0.359 -3.96,1.09 -0.86,0.613 -1.29,1.332 -1.29,2.14 v 85.852" /><path
         id="path98"
         style="fill:none;stroke:#ffffff;stroke-width:10;stroke-linecap:butt;stroke-linejoin:miter;stroke-miterlimit:10;stroke-dasharray:none;stroke-opacity:1"
         d="M 3345.07,157.02 H 155.137 V 3346.96 H 3345.07 Z" /></g></g></svg>